<svg width="416" height="60" viewBox="0 0 416 60" fill="none" xmlns="http://www.w3.org/2000/svg">
<g clip-path="url(#clip0_12_346)">
<mask id="mask0_12_346" style="mask-type:luminance" maskUnits="userSpaceOnUse" x="0" y="13" width="35" height="35">
<path d="M0.896973 13.0884H34.8574V47.1181H0.896973V13.0884Z" fill="white"/>
</mask>
<g mask="url(#mask0_12_346)">
<path d="M26.6608 28.7941C26.5166 26.5598 25.5086 24.4693 23.8501 22.9653C22.1916 21.4612 20.0128 20.6616 17.7751 20.7359C15.373 20.7827 13.0877 21.7812 11.4214 23.512C9.75504 25.2428 8.84397 27.5644 8.88835 29.9666C8.88835 35.5461 12.7472 39.5411 19.3595 39.5411H31.8964C30.3826 41.8863 28.3004 43.8107 25.8434 45.1354C23.3865 46.4602 20.6345 47.1422 17.8432 47.1182C14.4782 47.1179 11.1888 46.1199 8.39103 44.2503C5.59322 42.3806 3.41263 39.7234 2.125 36.6144C0.837374 33.5055 0.50053 30.0846 1.15707 26.7843C1.8136 23.4839 3.43403 20.4524 5.81345 18.073C8.19287 15.6936 11.2244 14.0731 14.5248 13.4166C17.8251 12.7601 21.246 13.0969 24.3549 14.3845C27.4638 15.6722 30.1211 17.8527 31.9908 20.6506C33.8604 23.4484 34.8584 26.7377 34.8586 30.1028C34.8357 31.9012 34.5575 33.6873 34.0324 35.4076H15.0841V33.5474L21.7657 33.3408C25.1411 33.2035 26.6562 31.4806 26.6562 28.7941" fill="white"/>
</g>
<path d="M48.9776 23.6278L55.4537 14.1213H64.4086L53.3869 29.482L65.3041 46.0843H55.7976L48.7018 35.7561L41.5379 46.0843H32.583L44.2936 29.8974L32.9235 14.1213H42.4334L48.9776 23.6278Z" fill="white"/>
<path d="M74.8093 59.2408H66.5422V14.1225H74.8093V20.3205C74.8093 20.4669 74.8684 20.5657 74.9557 20.5657C75.0261 20.5657 75.0976 20.501 75.1532 20.3897C76.0512 18.2641 77.5563 16.4506 79.4801 15.1763C81.4038 13.902 83.6608 13.2235 85.9683 13.2258C87.9024 13.2316 89.8141 13.6404 91.5815 14.4262C93.3488 15.212 94.933 16.3574 96.233 17.7895C97.6558 19.3325 98.7631 21.1388 99.4926 23.1069C100.316 25.3465 100.726 27.7168 100.705 30.1028C100.725 32.4892 100.312 34.8594 99.4869 37.0987C98.7593 39.0667 97.6539 40.8734 96.233 42.4172C94.933 43.8493 93.3488 44.9947 91.5815 45.7805C89.8141 46.5663 87.9024 46.9751 85.9683 46.9809C83.6608 46.9832 81.4038 46.3047 79.4801 45.0304C77.5563 43.7561 76.0512 41.9426 75.1532 39.817C75.0976 39.7035 75.025 39.641 74.9557 39.641C74.8684 39.641 74.8093 39.7387 74.8093 39.8851V59.2408ZM83.695 20.0458C82.5083 20.0622 81.3376 20.3215 80.255 20.8078C79.1724 21.294 78.2009 21.9969 77.4005 22.8731C75.6091 24.8489 74.6354 27.4316 74.6765 30.0982C74.6354 32.7649 75.6091 35.3476 77.4005 37.3234C78.2 38.2015 79.1711 38.9063 80.2538 39.3943C81.3364 39.8823 82.5076 40.1432 83.695 40.1609C84.8878 40.1536 86.0659 39.8975 87.1541 39.4089C88.2423 38.9203 89.2165 38.21 90.0145 37.3234C91.7961 35.3431 92.762 32.7617 92.718 30.0982C92.762 27.4348 91.7961 24.8534 90.0145 22.8731C89.2156 21.9883 88.2409 21.2799 87.1528 20.7931C86.0647 20.3063 84.887 20.0518 83.695 20.0458Z" fill="white"/>
<path d="M129.157 28.7941C129.013 26.5598 128.005 24.4693 126.347 22.9652C124.688 21.4611 122.509 20.6616 120.272 20.7358C117.87 20.7823 115.584 21.7805 113.918 23.5111C112.251 25.2417 111.34 27.5632 111.384 29.9653C111.384 35.5448 115.243 39.5399 121.855 39.5399H134.392C132.878 41.8852 130.796 43.8096 128.339 45.1344C125.882 46.4591 123.13 47.1411 120.339 47.117C116.974 47.1167 113.684 46.1187 110.886 44.249C108.088 42.3793 105.908 39.7219 104.62 36.613C103.333 33.504 102.996 30.083 103.653 26.7826C104.309 23.4823 105.93 20.4507 108.309 18.0714C110.689 15.692 113.72 14.0716 117.021 13.4152C120.321 12.7588 123.742 13.0958 126.851 14.3836C129.96 15.6714 132.617 17.8522 134.487 20.6502C136.356 23.4481 137.354 26.7376 137.354 30.1027C137.331 31.9011 137.053 33.6872 136.528 35.4075H117.581V33.5473L124.263 33.3407C127.639 33.2034 129.154 31.4805 129.154 28.7941" fill="white"/>
<path d="M154.78 46.9809C152.846 46.9752 150.935 46.5664 149.167 45.7806C147.4 44.9948 145.816 43.8493 144.516 42.4172C143.093 40.8742 141.986 39.0679 141.256 37.0999C140.431 34.8606 140.018 32.4903 140.038 30.1039C140.018 27.7176 140.431 25.3473 141.256 23.108C141.986 21.14 143.093 19.3336 144.516 17.7907C145.816 16.3586 147.4 15.2131 149.167 14.4273C150.935 13.6416 152.846 13.2328 154.78 13.227C157.088 13.2246 159.345 13.9031 161.269 15.1774C163.192 16.4517 164.697 18.2652 165.595 20.3909C165.651 20.5044 165.724 20.5657 165.793 20.5657C165.88 20.5657 165.939 20.4681 165.939 20.3217V0.275879H174.201V46.0843H165.939V39.8862C165.939 39.7398 165.88 39.6422 165.793 39.6422C165.723 39.6422 165.651 39.7057 165.595 39.817C164.698 41.9427 163.193 43.7563 161.269 45.0306C159.345 46.305 157.088 46.9834 154.78 46.9809ZM157.05 20.0459C155.857 20.0531 154.679 20.3092 153.591 20.7978C152.503 21.2864 151.529 21.9967 150.731 22.8833C148.949 24.8636 147.983 27.445 148.027 30.1085C147.983 32.7716 148.949 35.3526 150.731 37.3325C151.529 38.2191 152.503 38.9294 153.591 39.418C154.679 39.9066 155.857 40.1627 157.05 40.1699C158.238 40.1522 159.409 39.8913 160.491 39.4033C161.574 38.9153 162.545 38.2105 163.345 37.3325C165.136 35.3572 166.11 32.7748 166.069 30.1085C166.11 27.4418 165.136 24.859 163.345 22.8833C162.546 22.0057 161.575 21.3012 160.493 20.8132C159.411 20.3252 158.241 20.064 157.054 20.0459H157.05Z" fill="white"/>
<mask id="mask1_12_346" style="mask-type:luminance" maskUnits="userSpaceOnUse" x="0" y="0" width="416" height="60">
<path d="M0.896973 60H415.103V0H0.896973V60Z" fill="white"/>
</mask>
<g mask="url(#mask1_12_346)">
<path d="M188.393 46.0796H180.127V14.1213H188.393V46.0796ZM184.262 9.64721C182.988 9.63074 181.77 9.11694 180.869 8.21539C179.968 7.31385 179.454 6.09591 179.438 4.82134C179.456 3.54755 179.969 2.33077 180.87 1.4302C181.771 0.529626 182.988 0.0164531 184.262 0C185.536 0.0161659 186.753 0.529246 187.654 1.42988C188.555 2.33051 189.069 3.54746 189.086 4.82134C189.07 6.096 188.557 7.31411 187.656 8.21571C186.755 9.11732 185.537 9.63102 184.262 9.64721Z" fill="white"/>
<path d="M207.268 46.9809C205.334 46.9751 203.422 46.5663 201.655 45.7805C199.887 44.9947 198.303 43.8493 197.003 42.4172C195.58 40.8742 194.473 39.0679 193.744 37.0999C192.918 34.8602 192.506 32.4895 192.526 30.1028C192.506 27.7164 192.919 25.3462 193.744 23.1069C194.473 21.1388 195.58 19.3325 197.003 17.7895C198.303 16.3574 199.887 15.212 201.655 14.4262C203.422 13.6404 205.334 13.2316 207.268 13.2258C209.575 13.2235 211.832 13.902 213.756 15.1763C215.68 16.4506 217.185 18.2641 218.083 20.3897C218.139 20.5032 218.211 20.5657 218.28 20.5657C218.368 20.5657 218.427 20.4669 218.427 20.3205V14.1213H226.688V46.0843H218.427V39.8839C218.427 39.7375 218.368 39.6399 218.28 39.6399C218.21 39.6399 218.139 39.7046 218.083 39.8158C217.185 41.9417 215.68 43.7555 213.756 45.03C211.833 46.3045 209.576 46.9831 207.268 46.9809ZM209.538 20.0458C208.346 20.0521 207.169 20.3068 206.081 20.7936C204.994 21.2804 204.019 21.9886 203.221 22.8731C201.438 24.8546 200.472 27.4378 200.517 30.1028C200.473 32.7659 201.439 35.3469 203.221 37.3269C204.019 38.2134 204.993 38.9237 206.081 39.4123C207.169 39.9009 208.347 40.157 209.54 40.1643C210.728 40.1465 211.899 39.8856 212.981 39.3976C214.064 38.9096 215.035 38.2048 215.835 37.3269C217.626 35.3515 218.6 32.7691 218.559 30.1028C218.6 27.4361 217.626 24.8534 215.835 22.8776C215.035 22.0008 214.064 21.2972 212.981 20.8101C211.899 20.3231 210.728 20.063 209.541 20.0458H209.538Z" fill="white"/>
<path d="M259.342 60.0001C256.528 60.0159 253.735 59.5158 251.101 58.5246C248.644 57.5982 246.389 56.2063 244.46 54.4251L249.419 49.0522C252.617 51.5832 255.242 53.0473 259.202 53.0473C260.441 53.1247 261.681 52.9121 262.824 52.4262C263.967 51.9404 264.98 51.1947 265.784 50.2484C267.212 48.2859 267.929 45.8957 267.816 43.4715V39.6127C267.816 39.4663 267.757 39.3686 267.67 39.3686C267.599 39.3686 267.528 39.4322 267.472 39.5434C266.594 41.6551 265.112 43.461 263.213 44.7352C261.313 46.0094 259.08 46.6954 256.793 46.7073C254.877 46.7019 252.983 46.297 251.232 45.5184C249.481 44.7399 247.912 43.6048 246.624 42.1856C245.214 40.6553 244.118 38.864 243.396 36.9126C242.578 34.6886 242.17 32.335 242.19 29.9654C242.17 27.5963 242.579 25.2431 243.396 23.0195C244.118 21.068 245.214 19.2767 246.624 17.7464C247.912 16.3275 249.481 15.1926 251.232 14.4142C252.983 13.6359 254.877 13.2311 256.793 13.2258C259.08 13.2382 261.313 13.9243 263.212 15.1985C265.111 16.4726 266.592 18.2783 267.471 20.3897C267.527 20.5032 267.599 20.5657 267.669 20.5657C267.756 20.5657 267.815 20.4669 267.815 20.3205V14.1213H276.08V44.224C276.13 46.2924 275.767 48.35 275.013 50.2768C274.26 52.2036 273.13 53.961 271.69 55.4466C268.683 58.4247 264.413 60.0001 259.342 60.0001ZM259.067 20.0492C257.892 20.0548 256.732 20.3056 255.66 20.7854C254.588 21.2652 253.628 21.9635 252.841 22.8356C251.087 24.7913 250.136 27.3383 250.181 29.9654C250.136 32.5927 251.086 35.1397 252.841 37.0953C253.628 37.9681 254.588 38.6671 255.66 39.1475C256.732 39.6279 257.893 39.8791 259.068 39.8851C260.237 39.8685 261.39 39.6123 262.456 39.1325C263.523 38.6527 264.479 37.9593 265.267 37.0953C267.034 35.1452 267.994 32.5967 267.953 29.9654C267.994 27.3342 267.034 24.7858 265.267 22.8356C264.479 21.9714 263.522 21.2779 262.456 20.7981C261.389 20.3182 260.236 20.0622 259.067 20.0458V20.0492Z" fill="white"/>
<path d="M290.27 14.1213V21.0798C290.27 21.2171 290.409 21.2864 290.477 21.0798C291.58 15.3618 294.06 13.2258 298.33 13.2258H299.088V21.9061H295.368C291.993 21.9061 290.27 24.5233 290.27 28.2437V46.0854H282.004V14.1213H290.27Z" fill="white"/>
<path d="M316.652 47.1182C314.406 47.1365 312.179 46.7099 310.098 45.8631C308.018 45.0162 306.126 43.7659 304.531 42.1841C302.936 40.6023 301.67 38.7204 300.807 36.6469C299.943 34.5735 299.498 32.3495 299.498 30.1033C299.498 27.8571 299.943 25.6332 300.807 23.5597C301.67 21.4863 302.936 19.6044 304.531 18.0226C306.126 16.4408 308.018 15.1904 310.098 14.3435C312.179 13.4967 314.406 13.0701 316.652 13.0885C318.877 13.0872 321.08 13.5281 323.134 14.3854C325.187 15.2426 327.049 16.4993 328.613 18.0823C330.193 19.6598 331.447 21.5336 332.303 23.5963C333.158 25.659 333.599 27.8702 333.599 30.1033C333.599 32.3364 333.158 34.5476 332.303 36.6103C331.447 38.6731 330.193 40.5468 328.613 42.1243C327.049 43.7073 325.187 44.964 323.134 45.8213C321.08 46.6785 318.877 47.1194 316.652 47.1182ZM316.584 20.5974C315.392 20.5964 314.212 20.8386 313.116 21.3093C312.021 21.78 311.033 22.4693 310.213 23.3349C308.485 25.1618 307.534 27.5883 307.56 30.1027C307.534 32.6172 308.485 35.0437 310.213 36.8705C311.033 37.7356 312.021 38.4245 313.117 38.8952C314.212 39.366 315.392 39.6088 316.584 39.6088C317.777 39.6088 318.956 39.366 320.052 38.8952C321.147 38.4245 322.135 37.7356 322.956 36.8705C324.684 35.0437 325.635 32.6172 325.608 30.1027C325.635 27.5883 324.684 25.1618 322.956 23.3349C322.136 22.4693 321.148 21.78 320.052 21.3093C318.957 20.8386 317.777 20.5964 316.584 20.5974Z" fill="white"/>
<path d="M350.749 47.1171C342.69 47.1171 337.523 42.2265 337.523 35.0626V14.1213H345.789V34.4372C345.741 35.1314 345.84 35.8281 346.082 36.4807C346.323 37.1334 346.701 37.7272 347.189 38.2226C347.678 38.7179 348.267 39.1034 348.916 39.3535C349.566 39.6036 350.261 39.7124 350.956 39.6728C351.627 39.6811 352.293 39.5515 352.912 39.2921C353.531 39.0327 354.091 38.6489 354.555 38.1647C355.02 37.6804 355.381 37.1059 355.615 36.4766C355.849 35.8474 355.951 35.1768 355.916 34.5065V14.1213H364.182V35.0626C364.182 42.2265 358.602 47.1182 350.748 47.1182" fill="white"/>
<path d="M378.166 59.2408H369.898V14.1225H378.166V20.3205C378.166 20.4669 378.225 20.5657 378.312 20.5657C378.382 20.5657 378.454 20.501 378.509 20.3897C379.407 18.2641 380.912 16.4506 382.836 15.1763C384.76 13.902 387.017 13.2235 389.325 13.2258C391.259 13.2316 393.17 13.6404 394.938 14.4262C396.705 15.212 398.289 16.3574 399.589 17.7895C401.012 19.3325 402.119 21.1388 402.849 23.1069C403.672 25.3465 404.083 27.7168 404.061 30.1028C404.081 32.4892 403.668 34.8594 402.843 37.0987C402.115 39.0667 401.01 40.8734 399.589 42.4172C398.289 43.8493 396.705 44.9947 394.938 45.7805C393.17 46.5663 391.259 46.9751 389.325 46.9809C387.017 46.9832 384.76 46.3047 382.836 45.0304C380.912 43.7561 379.407 41.9426 378.509 39.817C378.454 39.7035 378.381 39.641 378.312 39.641C378.225 39.641 378.166 39.7387 378.166 39.8851V59.2408ZM387.051 20.0458C385.865 20.0623 384.694 20.3216 383.611 20.8078C382.529 21.2941 381.557 21.9969 380.757 22.8731C378.965 24.8488 377.991 27.4315 378.033 30.0982C377.991 32.7649 378.965 35.3477 380.757 37.3234C381.556 38.2014 382.527 38.9062 383.61 39.3942C384.693 39.8822 385.864 40.1431 387.051 40.1609C388.244 40.1536 389.422 39.8975 390.51 39.4089C391.598 38.9203 392.573 38.21 393.371 37.3234C395.152 35.3431 396.118 32.7617 396.074 30.0982C396.118 27.4348 395.152 24.8534 393.371 22.8731C392.572 21.9883 391.597 21.2799 390.509 20.7931C389.421 20.3063 388.243 20.0518 387.051 20.0458Z" fill="white"/>
<path d="M409.909 14.2336V15.0803H408.478V19.0164H407.473V15.0803H406.036V14.2336H409.909Z" fill="white"/>
<path d="M413.666 14.2336H415.104V19.0164H414.173V15.7806C414.173 15.6875 414.173 15.5574 414.173 15.3902C414.173 15.2222 414.173 15.0928 414.173 15.002L413.265 19.0153H412.302L411.402 15.002C411.402 15.0928 411.402 15.2222 411.402 15.3902C411.402 15.5581 411.402 15.6875 411.402 15.7806V19.0153H410.477V14.2336H411.932L412.802 17.9938L413.666 14.2336Z" fill="white"/>
</g>
</g>
<defs>
<clipPath id="clip0_12_346">
<rect width="414.206" height="60" fill="white" transform="translate(0.896973)"/>
</clipPath>
</defs>
</svg>
