<svg width="260" height="158" viewBox="0 0 260 158" fill="none" xmlns="http://www.w3.org/2000/svg">
<g clip-path="url(#clip0_12_373)">
<path d="M176.392 0.393066L144.383 49.7855L143.9 50.4753L144.383 51.1651L176.392 100.558H148.591L131.069 73.5849L129.965 71.9293L128.862 73.5849L111.34 100.558H83.5393L115.548 51.1651L116.031 50.4753L115.548 49.7855L83.5393 0.393066H111.34L128.862 27.3657L129.965 29.0213L131.069 27.3657L148.591 0.393066H176.392Z" fill="white"/>
<path d="M91.0586 26.124L106.856 50.5443L75.8131 98.4191L74.3645 100.627H61.1886H59.8779V101.937V114.906H38.4239V51.786H59.9469V77.172V81.518L62.2923 77.8619L79.1244 51.855L79.6073 51.1651L79.1244 50.4753L75.8821 45.4395L75.4682 44.8876H74.7784H28.5592L16.4871 26.124H91.0586Z" fill="white"/>
<path d="M74.4335 0.393066L75.8822 2.60055L86.5747 19.1567H12.0722L0 0.393066H74.4335Z" fill="white"/>
<path d="M243.513 26.1239L231.441 44.8875H185.222H184.532L184.118 45.4394L180.876 50.4752L180.393 51.165L180.876 51.8549L197.708 77.8618L200.053 81.5179V77.1719V51.7859H221.576V114.837H200.053V101.868V100.557H198.742H185.567L184.118 98.35L153.075 50.4752L168.872 26.0549L243.513 26.1239Z" fill="white"/>
<path d="M260 0.393066L247.928 19.1567H173.425L184.118 2.60055L185.566 0.393066H260Z" fill="white"/>
<path d="M226.819 109.732C226.819 106.628 229.302 104.559 232.062 104.559C234.821 104.559 237.304 106.559 237.304 109.732C237.304 112.837 234.821 114.906 232.062 114.906C229.302 114.906 226.819 112.906 226.819 109.732ZM232.062 105.662C229.854 105.662 228.13 107.387 228.13 109.732C228.13 112.078 229.854 113.802 232.062 113.802C234.2 113.802 235.994 112.078 235.994 109.732C235.994 107.387 234.269 105.662 232.062 105.662ZM231.165 112.63H229.992V106.835H232.2C233.648 106.835 234.407 107.318 234.407 108.56C234.407 109.594 233.786 110.008 233.027 110.077L234.407 112.561H233.165L231.855 110.077H231.165V112.63ZM231.165 109.249H232.131C232.958 109.249 233.234 108.974 233.234 108.422C233.234 107.87 232.889 107.732 232.062 107.732H231.165V109.249Z" fill="white"/>
<path d="M0.344971 157.607V134.015H10.3476L12.2792 135.946V146.501L10.3476 148.433H4.27705V157.607H0.344971ZM7.86421 144.569L8.34709 144.087V138.223L7.86421 137.809H4.27705V144.569H7.86421Z" fill="white"/>
<path d="M22.4199 152.503H17.591L16.5562 157.607H12.5552L18.1429 134.015H22.006L27.5936 157.607H23.5926L22.4199 152.503ZM21.661 148.708L20.0054 140.775L18.3498 148.708H21.661Z" fill="white"/>
<path d="M29.2493 157.607V134.015H39.4589L41.3904 135.946V146.501L39.4589 148.433L41.3904 157.607H37.5273L35.5958 148.433H33.2503V157.607H29.2493ZM36.9755 144.569L37.3894 144.087V138.223L36.9755 137.809H33.1813V144.569H36.9755Z" fill="white"/>
<path d="M51.4619 140.775V138.292L50.9791 137.809H47.9438L47.4609 138.292V143.19L47.9438 143.673H53.4625L55.394 145.604V155.676L53.4625 157.607H45.4604L43.5288 155.676V150.778H47.4609V153.261L47.9438 153.744H50.9791L51.4619 153.261V147.95L50.9791 147.467H45.4604L43.5288 145.535V135.877L45.4604 133.946H53.4625L55.394 135.877V140.775H51.4619Z" fill="white"/>
<path d="M69.8116 135.946V155.676L67.8801 157.607H59.9469L58.0154 155.676V135.946L59.9469 134.015H67.8801L69.8116 135.946ZM65.3277 137.878H62.3614L61.9475 138.292V153.33L62.3614 153.744H65.3277L65.8106 153.33V138.292L65.3277 137.878Z" fill="white"/>
<path d="M72.502 157.607V134.015H76.779L81.8838 148.501V134.015H85.8158V157.607H81.5388L76.434 143.121V157.607H72.502Z" fill="white"/>
<path d="M96.2325 140.775V138.292L95.7496 137.809H92.7143L92.2314 138.292V143.19L92.7143 143.673H98.233L100.165 145.604V155.676L98.233 157.607H90.2309L88.2993 155.676V150.778H92.2314V153.261L92.7143 153.744H95.7496L96.2325 153.261V147.95L95.7496 147.467H90.2309L88.2993 145.535V135.877L90.2309 133.946H98.233L100.165 135.877V140.775H96.2325Z" fill="white"/>
<path d="M118.031 145.949L122.791 157.607H118.79L116.031 150.847L113.271 157.607H109.27L114.03 145.949L109.132 134.015H113.133L116.031 141.12L118.928 134.015H122.929L118.031 145.949Z" fill="white"/>
<path d="M136.174 137.809H131.897V157.607H127.965V137.809H123.688V134.015H136.105V137.809H136.174Z" fill="white"/>
<path d="M138.037 157.607V134.015H148.246L150.178 135.946V146.501L148.246 148.433L150.178 157.607H146.315L144.383 148.433H142.038V157.607H138.037ZM145.763 144.569L146.177 144.087V138.223L145.763 137.809H141.969V144.569H145.763Z" fill="white"/>
<path d="M152.592 157.607V134.015H163.906V137.809H156.524V143.673H161.974V147.467H156.524V153.744H163.906V157.538H152.592V157.607Z" fill="white"/>
<path d="M175.978 152.571H173.908L170.114 141.741V157.676H166.182V134.084H171.08L174.943 145.259L178.806 134.084H183.704V157.676H179.841V141.741L175.978 152.571Z" fill="white"/>
<path d="M186.532 157.607V134.015H197.777V137.809H190.395V143.673H195.845V147.467H190.395V153.744H197.777V157.538H186.532V157.607Z" fill="white"/>
<path d="M207.572 155.676V135.946L209.504 134.015H217.713L219.644 135.946V140.844H215.712V138.292L215.298 137.809H212.056L211.573 138.292V153.33L212.056 153.813H215.298L215.712 153.33V148.639H213.781V144.776H219.644V155.745L217.713 157.676H209.504L207.572 155.676Z" fill="white"/>
<path d="M233.993 135.946V155.676L232.062 157.607H224.129L222.197 155.676V135.946L224.129 134.015H232.062L233.993 135.946ZM229.509 137.878H226.543L226.129 138.292V153.33L226.543 153.744H229.509L229.992 153.33V138.292L229.509 137.878Z" fill="white"/>
<path d="M247.514 157.607H236.684V134.015H240.685V153.813H247.514V157.607Z" fill="white"/>
<path d="M260.69 134.015V137.809H253.309V143.88H258.758V147.674H253.309V157.607H249.376V134.015H260.69Z" fill="white"/>
</g>
<defs>
<clipPath id="clip0_12_373">
<rect width="260" height="157.214" fill="white" transform="translate(0 0.393066)"/>
</clipPath>
</defs>
</svg>
