<svg width="320" height="94" viewBox="0 0 320 94" fill="none" xmlns="http://www.w3.org/2000/svg">
<path fill-rule="evenodd" clip-rule="evenodd" d="M9.41183 0C4.21151 0 0 4.20857 0 9.40006V84.5999C0 89.7937 4.21384 94 9.41183 94H84.7058C89.9061 94 94.1176 89.7914 94.1176 84.5999V9.40006C94.1176 4.20625 89.9038 0 84.7058 0H9.41183ZM44.292 31.7382L35.4978 41.1143H30.3519C25.729 41.1143 16.8991 44.7961 16.8753 50.5614V56.3267C16.8753 57.2502 17.624 57.996 18.551 57.996H21.8786C22.6273 60.7544 25.1467 62.7906 28.1415 62.7906C31.1363 62.7906 33.6676 60.7544 34.4045 57.996H59.7415C60.4902 60.7544 63.0096 62.7906 66.0044 62.7906C68.9992 62.7906 71.5305 60.7544 72.2674 57.996H75.5949C76.5219 57.996 77.2706 57.2502 77.2706 56.3267V47.0928C77.2706 43.7898 74.5729 41.1143 71.2572 41.1025H64.0911V39.0781C64.0911 38.1547 63.3424 37.4089 62.4154 37.4089C61.4884 37.4089 60.7397 38.1547 60.7397 39.0781V41.1025H40.0851L46.7402 34.0113C47.37 33.3365 47.3344 32.2828 46.657 31.6554C45.9796 31.028 44.9219 31.0635 44.292 31.7382ZM69.1418 56.3267C69.1418 58.0552 67.7276 59.4521 66.0044 59.4521C64.2812 59.4521 62.8789 58.0552 62.867 56.3267C62.867 54.5984 64.2693 53.2014 66.0044 53.2014C67.7395 53.2014 69.1418 54.6102 69.1418 56.3267ZM31.2908 56.3267C31.2908 58.0552 29.8766 59.4521 28.1534 59.4521C26.4302 59.4521 25.0278 58.0552 25.0159 56.3267C25.0159 54.5984 26.4302 53.2014 28.1534 53.2014C29.8885 53.2014 31.2908 54.6102 31.2908 56.3267ZM21.9023 54.6575H20.2623V50.5614C20.2623 47.732 26.3708 44.4528 30.3638 44.4528H71.2691C72.7308 44.4528 73.9193 45.6366 73.9193 47.0928V54.6575H72.2793C71.5305 51.8992 69.0111 49.8629 66.0163 49.8629C63.0215 49.8629 60.4902 51.8992 59.7534 54.6575H34.4282C33.6795 51.8992 31.1601 49.8629 28.1653 49.8629C25.1705 49.8629 22.6391 51.8992 21.9023 54.6575Z" fill="#033444"/>
<path d="M138.079 28.0262C138.079 26.9178 137.181 26.0204 136.071 26.0204C134.961 26.0204 134.036 26.9178 134.036 28.0262V63.734C134.036 67.1122 131.341 68.2998 129.015 68.2998C128.513 68.2998 127.271 68.247 126.822 68.2206C125.712 68.1678 124.761 69.0124 124.708 70.1208C124.655 71.2293 125.501 72.1794 126.611 72.2321C126.769 72.2321 128.302 72.3377 129.015 72.3377C134.274 72.3377 138.079 68.7221 138.079 63.734V28.0262ZM171.903 49.1659C171.903 56.8986 166.353 62.7312 159.034 62.7312C151.714 62.7312 146.191 56.9778 146.191 49.3506C146.191 41.6179 151.714 35.7853 159.034 35.7853C166.353 35.7853 171.903 41.5387 171.903 49.1659ZM167.86 49.1659C167.86 43.7556 164.134 39.8232 159.034 39.8232C153.934 39.8232 150.208 43.8348 150.208 49.3506C150.208 54.7609 153.934 58.6932 159.034 58.6932C164.134 58.6932 167.86 54.6817 167.86 49.1659ZM199.226 39.0051C199.648 37.9758 199.173 36.7882 198.142 36.3659C197.112 35.9437 195.923 36.4187 195.5 37.448L187.837 55.8693L180.173 37.5008C179.751 36.4715 178.562 35.9965 177.531 36.4187C176.5 36.841 176.025 38.0286 176.448 39.0579L185.67 61.1213L184.851 63.0742C183.424 66.5052 181.257 67.9567 177.346 68.0887C176.236 68.1414 175.364 69.0651 175.417 70.1736C175.47 71.3348 176.368 72.153 177.505 72.1266C182.948 72.021 186.568 69.461 188.576 64.6314L199.226 39.0051ZM226.443 27.7887V60.3295C226.443 61.438 225.545 62.3353 224.435 62.3353C223.668 62.3353 223.008 61.913 222.664 61.306C220.973 61.8866 218.278 62.7312 216.349 62.7312C208.818 62.7312 203.824 57.2945 203.824 49.2187C203.824 41.1692 208.818 35.7325 216.349 35.7325C218.172 35.7325 220.709 36.4715 222.426 37.0521V27.7887C222.426 26.6802 223.325 25.7829 224.435 25.7829C225.545 25.7829 226.443 26.6802 226.443 27.7887ZM222.426 57.1889V41.2484C220.735 40.615 217.802 39.7705 216.349 39.7705C210.985 39.7705 207.84 43.3069 207.84 49.2187C207.84 55.1568 210.985 58.6932 216.349 58.6932C217.802 58.6932 220.735 57.8487 222.426 57.1889ZM250.41 39.6385C250.965 38.6884 250.648 37.448 249.697 36.8938C249.512 36.7882 247.768 35.8117 245.495 35.8117C243.672 35.8117 241.082 36.6826 239.233 37.448C238.942 36.709 238.202 36.2076 237.383 36.2076C236.273 36.2076 235.375 37.1049 235.375 38.2134V60.3295C235.375 61.438 236.273 62.3353 237.383 62.3353C238.493 62.3353 239.391 61.438 239.391 60.3295V41.6179C241.346 40.747 244.174 39.8232 245.495 39.8232C246.684 39.8232 247.636 40.3511 247.636 40.3511C248.613 40.9317 249.829 40.615 250.41 39.6385ZM260.98 25.9149C261.878 24.8856 261.72 23.3285 260.689 22.4312C259.659 21.5603 258.1 21.6922 257.228 22.7215L256.224 23.8827C255.325 24.912 255.484 26.4691 256.514 27.34C257.545 28.2109 259.077 28.1054 259.976 27.0761L260.98 25.9149ZM260.61 38.2134C260.61 37.1049 259.712 36.2076 258.602 36.2076C257.492 36.2076 256.594 37.1049 256.594 38.2134V60.3295C256.594 61.438 257.492 62.3353 258.602 62.3353C259.712 62.3353 260.61 61.438 260.61 60.3295V38.2134ZM290.285 39.0315C290.734 38.0022 290.285 36.8146 289.254 36.3659C288.25 35.9173 287.035 36.3659 286.585 37.3952L278.605 55.3679L270.599 37.3952C270.149 36.3659 268.96 35.9173 267.956 36.3659C266.926 36.8146 266.476 38.0022 266.926 39.0315L276.756 61.1477C277.073 61.8602 277.812 62.3353 278.605 62.3353C279.398 62.3353 280.138 61.8602 280.455 61.1477L290.285 39.0315ZM318.031 48.5325C318.031 49.5354 317.264 50.3535 316.26 50.4063L298.82 51.4883C299.428 56.318 302.731 58.9308 307.355 58.9308C309.073 58.9308 310.738 58.6405 312.323 58.0335C313.327 57.664 314.437 58.0598 314.833 59.0363C315.256 60.0128 314.807 61.1213 313.829 61.5171C311.874 62.3089 309.469 62.7312 307.355 62.7312C299.851 62.7312 294.936 57.5056 294.936 50.0896V48.031C294.936 41.9082 299.005 35.7853 306.774 35.7853C313.724 35.7853 318.031 40.6414 318.031 48.5325ZM298.741 47.7143L314.146 46.7642C313.724 43.0958 311.98 39.5857 306.774 39.5857C301.41 39.5857 298.926 43.5445 298.741 47.7143Z" fill="#033444"/>
</svg>
