<svg width="366" height="76" viewBox="0 0 366 76" fill="none" xmlns="http://www.w3.org/2000/svg">
<g clip-path="url(#clip0_12_19)">
<mask id="mask0_12_19" style="mask-type:luminance" maskUnits="userSpaceOnUse" x="0" y="0" width="366" height="76">
<path d="M365.842 0.5H0.158203V75.5H365.842V0.5Z" fill="white"/>
</mask>
<g mask="url(#mask0_12_19)">
<path d="M293.144 19.6367H282.065V56.3993H293.144V19.6367Z" fill="white"/>
<mask id="mask1_12_19" style="mask-type:luminance" maskUnits="userSpaceOnUse" x="0" y="0" width="366" height="76">
<path d="M365.842 0.5H0.158203V75.5H365.842V0.5Z" fill="white"/>
</mask>
<g mask="url(#mask1_12_19)">
<path d="M54.151 19.6367H17.7122V56.3633H29.2589V46.2914H54.187C61.2373 46.2914 66.9568 40.6799 66.9568 33.7374V32.1907C66.9568 25.2482 61.2373 19.6367 54.187 19.6367M51.1654 37.982H29.2229V27.9101H51.1654C53.9352 27.9101 56.2014 30.1763 56.2014 32.9461C56.2014 35.7159 53.9352 37.982 51.1654 37.982Z" fill="white"/>
<path d="M269.727 44.277C273.252 42.0468 275.59 38.1619 275.59 33.7015V32.1907C275.59 25.2482 269.871 19.6367 262.82 19.6367H226.381V56.3633H237.928V46.2914H257.928L263.791 56.3993H276.777L269.763 44.313L269.727 44.277ZM237.892 37.982V27.9101H259.835C262.604 27.9101 264.871 30.1763 264.871 32.9461C264.871 35.7159 262.604 37.982 259.835 37.982H237.892Z" fill="white"/>
<path d="M336.993 33.4497H312.424C310.878 33.4497 309.654 32.2266 309.654 30.6799C309.654 29.1331 310.878 27.9101 312.424 27.9101H344.295V19.6367H310.338C304.115 19.6367 299.043 24.6367 299.043 30.8957C299.043 37.1547 304.079 42.1547 310.338 42.1547H334.906C336.453 42.1547 337.676 43.4137 337.676 44.9245C337.676 46.4353 336.417 47.6943 334.906 47.6943H300.374V56.3633H336.993C343.216 56.3633 348.288 51.3633 348.288 45.1043C348.288 38.8453 343.252 33.4497 336.993 33.4497Z" fill="white"/>
<path d="M111.633 25.9676L108.54 34.7446L124.583 37.0827V30.7517C124.583 24.6366 119.619 19.6726 113.504 19.6726H99.4028L102.281 29.4208L111.669 25.9676H111.633Z" fill="white"/>
<path d="M108.54 41.3274L111.633 50.1044L102.245 46.6511L99.3669 56.3993H113.468C119.583 56.3993 124.547 51.4353 124.547 45.3202V38.9893L108.504 41.3274H108.54Z" fill="white"/>
<path d="M72.2805 30.7517V37.0827L88.3237 34.7446L85.2302 25.9676L94.6187 29.4208L97.4963 19.6726H83.3956C77.2805 19.6726 72.3165 24.6366 72.3165 30.7517" fill="white"/>
<path d="M85.2302 50.0684L88.3237 41.2914L72.2805 38.9532V45.2842C72.2805 51.3993 77.2445 56.3633 83.3597 56.3633H97.4604L94.5827 46.6151L85.1942 50.0684H85.2302Z" fill="white"/>
<path d="M143.863 47.8741C142.784 47.8741 141.885 46.9748 141.885 45.8957V19.6007H130.806V48.5575C130.806 52.8381 134.295 56.3273 138.575 56.3273H166.201V47.8741H143.863Z" fill="white"/>
<path d="M207.928 19.6007H184.223C177.173 19.6007 171.453 25.2122 171.453 32.1547V56.3633H182.568V46.2554H209.547V56.3633H220.662V32.1547C220.662 25.2122 214.942 19.6007 207.892 19.6007M209.547 38.018H182.568V31.9029C182.568 29.7086 184.331 27.946 186.489 27.946H205.59C207.748 27.946 209.511 29.7086 209.511 31.9029V38.018H209.547Z" fill="white"/>
</g>
</g>
</g>
<defs>
<clipPath id="clip0_12_19">
<rect width="365.683" height="75" fill="white" transform="translate(0.158203 0.5)"/>
</clipPath>
</defs>
</svg>
