<svg width="320" height="112" viewBox="0 0 320 112" fill="none" xmlns="http://www.w3.org/2000/svg">
<path fill-rule="evenodd" clip-rule="evenodd" d="M219.316 37.7245C226.708 38.7301 231.686 44.2114 230.681 55.0229C228.219 81.5735 205.186 108.728 171.092 107.974L170.036 107.923L170.137 107.722C203.526 107.823 224.445 79.7634 226.708 54.8718C227.613 45.1164 223.137 40.1382 216.601 39.2328C206.946 37.8752 195.28 43.7588 188.24 53.7152L187.988 54.0672L187.888 53.9165C195.33 42.6525 208.454 36.2159 219.316 37.7245ZM287.856 37.3725C310.486 38.6798 317.021 55.2238 316.871 64.2755C316.469 88.5634 297.562 105.61 265.226 107.873L264.221 107.923L264.271 107.773C294.395 105.46 312.948 85.9986 313.351 61.912C313.501 53.6649 307.871 39.5346 288.309 37.6237L287.706 37.5734L287.856 37.3725ZM168.276 11.0226C171.645 15.4478 167.472 24.449 165.108 30.4833L165.008 30.7346L146.351 79.2104C145.094 82.4287 143.636 86.0492 143.284 89.9713C142.48 99.0732 150.475 106.918 166.265 107.722L166.768 107.773L166.717 107.923C148.363 107.37 139.563 98.3188 140.418 88.3119C140.77 84.3895 141.977 81.2218 143.133 78.2045L143.284 77.8022L161.84 29.6788C162.041 29.0752 162.242 28.5222 162.493 27.9185L162.694 27.3153C162.795 27.0135 162.895 26.7619 163.047 26.4605L163.247 25.9071C165.259 20.5769 166.918 15.6489 164.153 12.3301L164.002 12.1792V11.9278L168.276 11.0226ZM284.539 37.1712L284.485 37.3222C256.325 39.5849 235.812 59.2467 235.359 83.183C235.206 91.4297 240.989 105.862 260.451 107.521L261.054 107.571L261.004 107.722C238.324 106.415 231.789 89.7201 231.939 80.6684C232.341 56.28 253.008 39.1324 284.539 37.1712ZM213.785 40.9931C219.769 41.8479 223.59 46.2228 222.785 54.8216C220.625 77.9532 200.006 106.717 171.143 107.471H170.288L170.338 107.32C196.688 105.711 217.003 76.193 219.015 54.7211C219.718 47.1781 216.249 43.2557 211.12 42.552C203.678 41.5461 194.525 46.3735 188.692 54.2685L188.441 54.57L188.34 54.4193C194.676 45.1164 205.186 39.7862 213.785 40.9931ZM287.653 37.7748C305.052 39.1826 310.383 51.7037 310.283 59.3472C309.88 82.7803 292.029 105.007 265.329 107.421L264.524 107.471L264.574 107.32C288.661 104.856 306.563 80.2159 306.966 56.9335C307.065 50.0946 302.088 39.6351 288.006 37.9757L287.603 37.9255L287.653 37.7748ZM177.076 9.21232C179.943 13.0843 174.763 24.5495 172.852 29.4272L172.752 29.6285L152.537 81.8753C151.28 84.9429 149.469 89.569 149.117 93.4914C148.464 100.934 154.85 106.566 166.566 107.32H166.918L166.868 107.471C152.688 106.918 145.497 100.129 146.201 91.7817C146.553 87.8594 148.061 83.9872 149.319 80.8697L149.469 80.4675L169.031 29.729C171.143 24.4993 175.417 15.1461 172.601 10.6203L172.45 10.4192V10.1678L177.076 9.21232ZM284.336 37.6237L284.286 37.7748C260.904 40.2387 242.397 65.3313 241.994 88.1612C241.894 95 246.067 105.61 260.801 107.169L261.253 107.219L261.203 107.37C243.804 106.214 238.424 93.2904 238.577 85.647C238.93 62.1632 258.135 39.5849 284.336 37.6237ZM186.128 7.35175C187.586 11.626 181.602 25.4043 180.395 28.5724L180.345 28.6729L158.772 84.4401C157.515 87.6584 155.504 92.9384 155.152 96.8604C154.799 100.984 156.861 103.901 161.035 105.409C163.751 106.415 166.164 106.767 167.069 106.867H167.17L167.12 107.018C156.962 106.314 151.531 101.738 152.135 95.0503C152.436 91.3795 154.297 86.6023 155.604 83.384L155.755 83.0319L176.825 28.5222C178.233 24.9016 183.915 12.1792 181.853 8.60889L181.753 8.45806V8.20661L186.128 7.35175ZM287.453 38.2273C299.622 39.5849 303.645 48.2342 303.545 54.4193C303.142 76.9976 286.349 104.253 265.329 106.968L264.674 107.018L264.774 106.867C283.128 104.403 299.825 74.3829 300.228 52.0055C300.327 46.5748 297.006 39.9369 287.706 38.378L287.354 38.3278L287.453 38.2273ZM208.454 44.3118C212.779 44.9155 215.696 48.2845 215.092 54.6708C213.332 73.8798 195.481 103.448 171.293 106.867L170.539 106.968L170.589 106.817C192.816 102.141 209.511 72.0194 211.17 54.4193C211.673 49.2398 209.36 46.3735 205.638 45.8708C200.459 45.1667 193.872 48.737 189.094 54.8216L188.843 55.1234L188.743 54.9723C193.721 47.8319 201.867 43.4068 208.454 44.3118ZM8.81976 18.0626C8.87001 18.1129 8.92025 18.1129 8.97049 18.1632L9.12157 18.2638C11.4851 20.0238 14.15 22.5883 16.6642 34.1039L16.765 34.5062L32.3534 106.817H28.8336C28.8336 106.817 13.3956 35.1597 13.3454 35.0592C11.133 24.9518 8.317 20.5769 2.73521 18.2638L2.48364 18.1632V18.0124L8.81976 18.0626ZM20.5363 18.0626C20.5866 18.4649 20.6368 18.8169 20.6871 19.2192L20.7377 19.5209C21.1399 22.4878 21.693 25.4546 23.5031 33.2491L23.6039 33.6514L39.3936 106.867H35.8735L20.1341 33.9026C18.0724 25.4546 17.318 21.5324 14.8038 18.3643L14.6528 18.2135V18.0626H20.5363ZM284.136 38.026L284.033 38.177C266.334 40.641 248.935 71.2149 248.532 93.0388C248.433 98.4696 251.75 105.359 261.054 106.666L261.356 106.717L261.253 106.867C249.238 105.862 245.062 96.7097 245.162 90.4744C245.668 68.2478 263.366 40.2387 284.136 38.026ZM87.316 48.0329C89.2772 48.0329 90.4339 49.1393 90.5343 51.2512C90.6348 53.1119 89.3777 56.9335 87.869 60.8559L87.6178 61.5097L87.316 62.264C86.1594 65.1805 84.9526 68.0468 84.0977 70.1587L83.9467 70.4605L69.4141 106.817H65.7935L80.4771 70.209C82.4383 65.4318 87.316 54.369 87.1649 51.4023C87.1147 49.9941 86.3604 49.4411 85.2544 49.4411C82.6393 49.4411 78.0634 55.9782 75.0963 62.6157L74.9456 62.9175H74.7446C77.7616 55.3243 82.7398 48.0329 87.316 48.0329ZM91.1878 45.368C94.8084 45.368 96.8705 47.6306 97.0714 50.8489C97.323 55.6764 93.3503 64.8285 90.9869 70.6112L90.8358 70.913L76.7055 106.817H73.0849L87.517 70.6112C89.5787 65.1303 93.9536 55.3243 93.7526 50.9494C93.6015 48.2845 91.9924 46.7256 89.227 46.7256C82.9411 46.7256 77.7114 54.6206 74.5936 62.5655L74.4931 62.8673H74.2918C77.2086 53.8663 83.3434 45.368 91.1878 45.368ZM98.9824 39.8867C105.972 39.8867 109.794 44.3621 110.095 50.1452C110.447 56.7325 108.134 63.1189 105.62 69.5052L105.218 70.4605L104.916 71.1646L104.614 71.8683L91.2384 106.817H87.6178L101.245 71.6171C103.81 64.728 107.028 57.185 106.676 50.2959C106.424 45.1164 103.005 41.2949 96.8701 41.2949C84.0475 41.2949 76.7055 51.3517 73.4369 62.5655L73.3365 62.9175H73.1857C76.2027 50.6982 84.5503 39.8867 98.9824 39.8867ZM95.1102 42.552C100.39 42.552 103.357 45.921 103.608 50.3964C103.91 56.5814 100.491 64.4765 98.0267 70.8628L97.876 71.2651L84.0977 106.767H80.3261L94.3559 71.1144C96.8199 64.929 100.541 56.0787 100.239 50.648C100.038 46.7256 97.5239 43.9096 93.0485 43.9096C83.6954 43.9096 77.2086 52.9106 73.9903 62.5153L73.8895 62.8171H73.7387C76.8063 52.4078 83.7457 42.552 95.1102 42.552ZM136.848 37.2214C141.474 37.2214 145.245 40.1885 145.547 46.6251C146.251 59.7997 134.384 70.561 121.359 72.6729L120.957 72.7235L120.857 72.5724C132.02 70.0582 143.083 59.9508 142.429 48.0329C142.128 42.4009 138.809 39.736 134.735 39.736C127.243 39.736 120.706 46.0717 116.633 54.4695C116.582 54.8718 116.582 55.3243 116.532 55.7769C120.253 48.0329 126.036 42.0994 132.523 42.0994C136.144 42.0994 138.909 44.4626 139.16 49.3909C139.714 59.649 130.109 69.6559 120.857 72.1702L120.555 72.2204L120.404 72.0697C128.048 69.2537 136.496 59.6992 136.043 50.7484C135.842 46.6753 133.478 44.5634 130.411 44.5634C124.779 44.5634 119.75 50.2457 116.281 57.4366C116.18 57.9896 116.13 58.4924 116.029 59.0457C119.097 52.3576 123.572 46.9771 128.198 46.9771C130.964 46.9771 132.774 48.7872 132.925 52.1563C133.327 59.649 126.589 68.7509 120.354 71.7176L120.153 71.8181L120.002 71.6674C124.578 68.7006 130.109 59.7495 129.807 53.5645C129.657 51.0502 128.349 49.4913 126.137 49.4913C122.416 49.4913 118.493 54.7713 115.627 60.9563C115.375 61.9622 115.124 62.9175 114.772 63.9234C117.437 57.738 121.007 51.9051 123.823 51.9051C125.634 51.9051 126.388 53.1622 126.489 54.9723C126.74 59.5485 123.12 68.1473 119.851 71.2149L119.7 71.3656L119.549 71.2149C122.416 66.0856 123.723 60.0513 123.472 56.4307C123.371 55.4754 123.019 54.369 121.762 54.369C120.253 54.369 117.588 58.7942 115.174 63.5714L114.923 64.1244L114.672 64.6778C114.571 64.8787 114.47 65.0295 114.42 65.2308L114.269 65.4823C113.615 67.3929 112.861 69.3541 112.107 71.4158L111.805 72.2204L98.6806 106.717H95.06L108.285 71.9189C111.101 64.4765 113.817 58.0399 113.414 49.7429C113.062 43.4068 108.788 38.5291 100.994 38.5291C84.8521 38.5291 76.404 49.7931 73.1857 62.4148L73.0849 62.8171H72.9342C75.9009 49.1895 84.9023 37.1712 103.005 37.1712C111.654 37.1712 116.381 42.6524 116.783 49.6421C116.834 50.7484 116.834 51.8046 116.834 52.8101C121.158 43.8593 128.45 37.2214 136.848 37.2214ZM195.28 5.49118C196.487 6.7986 188.139 27.2148 187.435 29.0752V29.1254L164.957 87.1553C163.851 90.1224 161.337 96.6594 160.985 100.28C160.683 104.001 163.449 105.812 167.12 106.515L167.321 106.566L167.22 106.717C161.739 105.862 157.615 103.297 158.018 98.6206C158.32 94.9498 160.431 89.368 161.689 86.0492L161.789 85.7474L183.764 28.824C184.317 27.265 185.977 23.2924 187.485 18.9678L187.737 18.2135C189.245 13.8889 190.603 9.41347 190.603 6.84891V6.64777V6.44663L195.28 5.49118ZM287.254 38.6798C294.291 39.8364 297.006 44.7644 296.907 49.5416C296.504 71.2651 280.815 103.75 265.379 106.566L264.927 106.616L265.027 106.465C277.548 104.152 293.137 68.5998 293.539 47.1781C293.589 43.2055 291.929 40.2387 287.503 38.9816L287.254 38.9314V38.6798ZM202.923 47.5804C205.84 47.9827 207.6 50.3461 207.248 54.3188C205.84 69.7062 189.195 100.883 171.343 106.314L170.79 106.465L170.891 106.264C186.53 99.4754 202.169 67.8961 203.426 54.2685C203.678 51.3015 202.32 49.4411 200.258 49.1895C197.14 48.737 192.766 51.4525 189.446 55.3746L189.245 55.6261L189.145 55.4754C193.067 50.2959 198.599 46.9771 202.923 47.5804ZM283.933 38.4789L283.833 38.6296C271.715 41.0935 255.523 77.2994 255.171 97.9165C255.121 101.939 256.578 105.258 261.356 106.214L261.606 106.264L261.506 106.415C254.166 105.61 251.75 100.18 251.85 95.4023C252.252 74.1816 268.9 40.6913 283.933 38.4789ZM204.733 3.63062L171.143 89.8708C169.885 93.0891 167.019 99.6764 166.717 103.348C166.617 104.755 167.069 105.812 167.522 106.113L167.572 106.164L167.472 106.415C167.17 106.314 166.969 106.214 166.717 106.113C165.158 105.359 163.952 103.448 164.002 101.889C164.153 98.3188 166.717 91.9325 167.974 88.7644L168.075 88.5132L190.955 29.3267C191.156 28.7231 193.721 22.3874 196.084 16.2524L196.336 15.5484C198.347 10.2684 200.208 5.34032 200.157 4.63633V4.58602L204.733 3.63062ZM30.1912 18.0626C29.2862 21.0295 28.7328 25.3541 30.9456 34.6569L31.0461 35.1095L44.1206 97.0115L41.8073 101.889L27.1237 33.5003C25.6153 26.8628 25.2131 23.4431 25.1122 20.3255V19.9232C25.1122 19.5209 25.1122 19.1186 25.1122 18.7164V18.3141V18.1129L30.1912 18.0626ZM40.4494 18.0626V18.2135C37.2311 21.0798 36.3763 26.1587 38.237 35.7633L38.3375 36.1656L48.8472 87.105L46.4837 92.033L34.6164 35.21C32.6552 25.6057 33.158 21.8341 34.8174 18.2135L34.868 18.0626H40.4494ZM54.9823 18.0626V18.2135C45.9809 19.9232 43.3662 24.9518 45.5786 36.4168L53.5239 77.1989L51.1604 82.1771L42.0585 36.5177C39.2425 23.1919 44.07 19.4204 46.5343 18.1632L46.685 18.1129L54.9823 18.0626ZM98.4792 18.0626V18.2135C84.8521 22.3368 78.7169 30.2318 68.2575 49.8434L67.956 50.4466L67.7044 50.2959C76.9068 30.6341 81.332 22.5381 88.5731 18.1632L88.7741 18.0124C88.7741 18.0626 98.4792 18.0626 98.4792 18.0626ZM82.1365 18.0626V18.2135C80.9799 19.9232 79.9744 21.6832 78.8178 23.9965L78.6164 24.449C76.253 29.2262 73.3365 36.2661 67.7044 49.6923L67.5035 50.1954L67.2519 50.0443C72.8337 34.456 75.7 26.8125 75.0461 18.6158V18.3141V18.1129C74.9959 18.0626 82.1365 18.0626 82.1365 18.0626ZM69.4643 18.0626C74.3424 22.9906 72.6324 31.1368 67.2017 49.29L67.0506 49.8434L66.7994 49.6923C71.9789 29.1756 70.3195 21.1301 62.7263 18.3141L62.4747 18.2135V18.0626H69.4643Z" fill="white"/>
</svg>
